<?xml version="1.0" encoding="UTF-8" standalone="no"?>
<!-- Created with Inkscape (http://www.inkscape.org/) -->

<svg
   xmlns:osb="http://www.openswatchbook.org/uri/2009/osb"
   xmlns:dc="http://purl.org/dc/elements/1.1/"
   xmlns:cc="http://creativecommons.org/ns#"
   xmlns:rdf="http://www.w3.org/1999/02/22-rdf-syntax-ns#"
   xmlns:svg="http://www.w3.org/2000/svg"
   xmlns="http://www.w3.org/2000/svg"
   xmlns:sodipodi="http://sodipodi.sourceforge.net/DTD/sodipodi-0.dtd"
   xmlns:inkscape="http://www.inkscape.org/namespaces/inkscape"
   width="58.783306"
   height="61.188213"
   id="svg2985"
   version="1.1"
   inkscape:version="0.91 r13725"
   sodipodi:docname="kobionic_final.svg"
   inkscape:export-filename="/home/rodriguez/Downloads/kobionic_final.png"
   inkscape:export-xdpi="768"
   inkscape:export-ydpi="768">
  <title
     id="title3038">Kobionic logo</title>
  <defs
     id="defs2987">
    <linearGradient
       id="linearGradient4189"
       osb:paint="solid">
      <stop
         style="stop-color:#000000;stop-opacity:1;"
         offset="0"
         id="stop4191" />
    </linearGradient>
  </defs>
  <sodipodi:namedview
     id="base"
     pagecolor="#ffffff"
     bordercolor="#666666"
     borderopacity="1.0"
     inkscape:pageopacity="0.0"
     inkscape:pageshadow="2"
     inkscape:zoom="11.313709"
     inkscape:cx="17.151757"
     inkscape:cy="28.803399"
     inkscape:current-layer="layer2"
     showgrid="true"
     inkscape:document-units="px"
     inkscape:grid-bbox="true"
     inkscape:window-width="1920"
     inkscape:window-height="981"
     inkscape:window-x="0"
     inkscape:window-y="28"
     inkscape:window-maximized="1"
     fit-margin-top="0"
     fit-margin-left="0"
     fit-margin-right="0"
     fit-margin-bottom="0">
    <inkscape:grid
       type="xygrid"
       id="grid3003"
       empspacing="5"
       visible="true"
       enabled="true"
       snapvisiblegridlinesonly="true"
       originx="-2.5977317"
       originy="-1.4918005" />
  </sodipodi:namedview>
  <metadata
     id="metadata2990">
    <rdf:RDF>
      <cc:Work
         rdf:about="">
        <dc:format>image/svg+xml</dc:format>
        <dc:type
           rdf:resource="http://purl.org/dc/dcmitype/StillImage" />
        <dc:title>Kobionic logo</dc:title>
        <dc:date>19/01/2018</dc:date>
        <dc:creator>
          <cc:Agent>
            <dc:title>Faure Frederic (frederik.faure@gmail.com)</dc:title>
          </cc:Agent>
        </dc:creator>
        <dc:rights>
          <cc:Agent>
            <dc:title>Kobionic (contact@jeremierodriguez.com)</dc:title>
          </cc:Agent>
        </dc:rights>
        <dc:subject>
          <rdf:Bag>
            <rdf:li>kobionic</rdf:li>
          </rdf:Bag>
        </dc:subject>
        <dc:description>KOBIONIC LOGO</dc:description>
        <dc:publisher>
          <cc:Agent>
            <dc:title>contact@jeremierodriguez.com</dc:title>
          </cc:Agent>
        </dc:publisher>
      </cc:Work>
    </rdf:RDF>
  </metadata>
  <g
     inkscape:groupmode="layer"
     id="layer2"
     inkscape:label="stroke"
     style="display:inline"
     transform="translate(-2.5977317,-1.3199877)">
    <path
       style="fill:none;stroke:#000000;stroke-width:0.99382097px;stroke-linecap:butt;stroke-linejoin:miter;stroke-opacity:1"
       d="m 27.151414,61.657567 10.050246,0"
       id="path3115"
       inkscape:connector-curvature="0" />
    <path
       style="fill:none;stroke:#000000;stroke-width:1.19115973px;stroke-linecap:butt;stroke-linejoin:miter;stroke-opacity:1"
       d="M 36.97008,61.639678 39.145696,60.33535"
       id="path3117"
       inkscape:connector-curvature="0" />
    <path
       style="fill:none;stroke:#000000;stroke-width:1.19115973px;stroke-linecap:butt;stroke-linejoin:miter;stroke-opacity:1"
       d="M 27.471438,61.63968 25.295819,60.33535"
       id="path3121"
       inkscape:connector-curvature="0" />
    <path
       style="fill:none;stroke:#000000;stroke-width:1.04956472px;stroke-linecap:butt;stroke-linejoin:miter;stroke-opacity:1"
       d="M 38.933789,60.638753 42.223144,47.57788"
       id="path3123"
       inkscape:connector-curvature="0" />
    <path
       style="fill:none;stroke:#000000;stroke-width:0.9777863px;stroke-linecap:butt;stroke-linejoin:miter;stroke-opacity:1"
       d="M 25.278111,60.674824 22.359546,47.89917"
       id="path3125"
       inkscape:connector-curvature="0" />
    <path
       style="fill:none;stroke:#000000;stroke-width:0.96901298px;stroke-linecap:butt;stroke-linejoin:miter;stroke-opacity:1"
       d="M 41.929157,47.90358 60.128372,42.021763 57.254811,24.376317 52.465544,25.35662 40.01345,16.533896 38.097744,15.553592"
       id="path3127"
       inkscape:connector-curvature="0" />
    <path
       style="fill:none;stroke:#000000;stroke-width:0.98343265px;stroke-linecap:butt;stroke-linejoin:miter;stroke-opacity:1"
       d="m 38.187741,15.650181 -11.73298,0 -1.955496,0.989149 -12.710726,8.902352 -4.8887404,-0.98915 -2.9332446,17.804705"
       id="path3129"
       inkscape:connector-curvature="0" />
    <path
       style="fill:none;stroke:#000000;stroke-width:1.0019114px;stroke-linecap:butt;stroke-linejoin:miter;stroke-opacity:1"
       d="M 3.8873052,42.104177 22.524427,48.244408"
       id="path3131"
       inkscape:connector-curvature="0" />
    <path
       style="fill:none;stroke:#000000;stroke-width:0.99673444px;stroke-linecap:butt;stroke-linejoin:miter;stroke-opacity:1"
       d="m 57.303309,24.303824 2.0153,-6.901565 -2.0153,-14.7890674"
       id="path3133"
       inkscape:connector-curvature="0" />
    <path
       style="fill:none;stroke:#000000;stroke-width:0.99179584px;stroke-linecap:butt;stroke-linejoin:miter;stroke-opacity:1"
       d="M 6.8500483,24.395645 4.8551279,17.4925 6.8500483,2.70005 17.822109,6.6447043 25.80179,15.520173"
       id="path3135"
       inkscape:connector-curvature="0" />
    <path
       style="fill:none;stroke:#000000;stroke-width:0.99406016px;stroke-linecap:butt;stroke-linejoin:miter;stroke-opacity:1"
       d="M 57.551111,2.8798683 46.398255,6.7783171 38.287087,15.549824"
       id="path3139"
       inkscape:connector-curvature="0" />
    <path
       style="fill:none;stroke:#000000;stroke-width:1.01468384px;stroke-linecap:butt;stroke-linejoin:miter;stroke-opacity:1"
       d="M 39.093319,60.388261 49.183421,54.265926 60.282534,42.021256"
       id="path3141"
       inkscape:connector-curvature="0" />
    <path
       style="fill:none;stroke:#000000;stroke-width:1.02943063px;stroke-linecap:butt;stroke-linejoin:miter;stroke-opacity:1"
       d="M 25.517744,60.55953 15.224053,54.382575 3.9009955,42.028667"
       id="path3143"
       inkscape:connector-curvature="0" />
    <path
       style="fill:none;stroke:#000000;stroke-width:0.9777863px;stroke-linecap:butt;stroke-linejoin:miter;stroke-opacity:1"
       d="m 41.816646,47.720489 0,0"
       id="path3147"
       inkscape:connector-curvature="0" />
    <path
       style="fill:none;stroke:#000000;stroke-width:0.9777863px;stroke-linecap:butt;stroke-linejoin:miter;stroke-opacity:1"
       d="m 52.606491,24.849388 3.007007,-7.593921 0.70753,-13.9370756 M 11.658142,25.296089 7.7667234,17.344807 7.8551647,3.3183914"
       id="path3357"
       inkscape:connector-curvature="0" />
  </g>
  <g
     inkscape:groupmode="layer"
     id="layer5"
     inkscape:label="bionic"
     style="display:inline"
     transform="translate(-2.5977317,-1.3199877)">
    <path
       style="fill:none;stroke:#000000;stroke-width:0.9777863px;stroke-linecap:butt;stroke-linejoin:miter;stroke-opacity:1"
       d="m 40.401584,17.166127 -7.429075,11.07819 0.176883,8.934024 8.844135,10.274128"
       id="path3360"
       inkscape:connector-curvature="0" />
    <path
       style="display:inline;fill:none;stroke:#000000;stroke-width:1.00023746px;stroke-linecap:butt;stroke-linejoin:miter;stroke-opacity:1"
       d="m 40.846732,38.328481 14.658926,-0.09363 -0.883067,-7.209702 -2.20767,0.09362"
       id="path3419"
       inkscape:connector-curvature="0" />
  </g>
  <g
     inkscape:groupmode="layer"
     id="layer6"
     inkscape:label="jewel"
     style="display:inline"
     transform="translate(-2.5977317,-1.3199877)">
    <path
       style="fill:none;stroke:#000000;stroke-width:1.0677501px;stroke-linecap:butt;stroke-linejoin:miter;stroke-opacity:1"
       d="m 54.543993,20.784946 2.351369,0 -0.783788,2.308104 -2.841238,0.192343 m -43.5579027,-1.920275 -2.4763581,-0.08934 0.7075309,2.054827 2.7416809,0.26802"
       id="path3379"
       inkscape:connector-curvature="0" />
  </g>
  <g
     inkscape:groupmode="layer"
     id="layer7"
     inkscape:label="tags"
     style="display:inline"
     transform="translate(-2.5977317,-1.3199877)">
    <path
       style="fill:none;stroke:#000000;stroke-width:0.9777863px;stroke-linecap:butt;stroke-linejoin:miter;stroke-opacity:1"
       d="m 33.060951,16.094044 -0.08845,3.305589 2.918566,0 -3.802979,5.092393 -3.537655,-5.092393 2.741683,0.08934 -0.08845,-3.75229"
       id="path3382"
       inkscape:connector-curvature="0" />
    <path
       transform="matrix(-1.0340715,0,0,0.97254647,65.770515,0.88408765)"
       sodipodi:type="spiral"
       style="fill:none;stroke:#000000;stroke-width:1px;stroke-linecap:butt;stroke-linejoin:miter;stroke-opacity:1"
       id="path3395-7"
       sodipodi:cx="40"
       sodipodi:cy="24"
       sodipodi:expansion="1"
       sodipodi:revolution="3"
       sodipodi:radius="1.4142135"
       sodipodi:argument="-16.493361"
       sodipodi:t0="0"
       d="m 40,24 c -0.05014,0.05014 -0.09232,-0.04285 -0.08333,-0.08333 0.02436,-0.10971 0.164884,-0.127347 0.25,-0.08333 0.152253,0.07873 0.170089,0.283172 0.08333,0.416667 -0.127319,0.195909 -0.403065,0.214099 -0.583334,0.08333 -0.240269,-0.174291 -0.258648,-0.523527 -0.08333,-0.75 C 39.803951,23.29834 40.227595,23.279856 40.5,23.5 c 0.32992,0.266625 0.348468,0.765148 0.08333,1.083334 -0.312453,0.374971 -0.88613,0.39356 -1.25,0.08333 -0.420103,-0.35817 -0.43872,-1.007176 -0.08333,-1.416667 0.403814,-0.465289 1.128266,-0.483926 1.583333,-0.08333 0.510517,0.449407 0.529168,1.24939 0.08333,1.75 -0.494963,0.555773 -1.370537,0.574436 -1.916667,0.08333" />
    <path
       transform="matrix(-0.72006571,0,0,0.68544502,49.046032,8.0332785)"
       sodipodi:type="spiral"
       style="fill:none;stroke:#000000;stroke-width:1px;stroke-linecap:butt;stroke-linejoin:miter;stroke-opacity:1"
       id="path3395-7-9"
       sodipodi:cx="40"
       sodipodi:cy="24"
       sodipodi:expansion="1"
       sodipodi:revolution="3"
       sodipodi:radius="1.4142135"
       sodipodi:argument="-16.493361"
       sodipodi:t0="0"
       d="m 40,24 c -0.05014,0.05014 -0.09232,-0.04285 -0.08333,-0.08333 0.02436,-0.10971 0.164884,-0.127347 0.25,-0.08333 0.152253,0.07873 0.170089,0.283172 0.08333,0.416667 -0.127319,0.195909 -0.403065,0.214099 -0.583334,0.08333 -0.240269,-0.174291 -0.258648,-0.523527 -0.08333,-0.75 C 39.803951,23.29834 40.227595,23.279856 40.5,23.5 c 0.32992,0.266625 0.348468,0.765148 0.08333,1.083334 -0.312453,0.374971 -0.88613,0.39356 -1.25,0.08333 -0.420103,-0.35817 -0.43872,-1.007176 -0.08333,-1.416667 0.403814,-0.465289 1.128266,-0.483926 1.583333,-0.08333 0.510517,0.449407 0.529168,1.24939 0.08333,1.75 -0.494963,0.555773 -1.370537,0.574436 -1.916667,0.08333" />
  </g>
  <g
     inkscape:groupmode="layer"
     id="layer4"
     inkscape:label="inner"
     style="display:inline"
     transform="translate(-2.5977317,-1.3199877)">
    <path
       style="fill:none;stroke:#000000;stroke-width:1.0059768px;stroke-linecap:butt;stroke-linejoin:miter;stroke-opacity:1"
       d="m 27.503168,48.360038 1.885177,8.012289 6.283915,0 1.885176,-7.919123"
       id="path3234-3"
       inkscape:connector-curvature="0" />
    <path
       style="fill:none;stroke:#000000;stroke-width:0.9777863px;stroke-linecap:butt;stroke-linejoin:miter;stroke-opacity:1"
       d="m 23.863049,38.518445 2.5648,-3.84163 0,-3.752291 -14.858148,-0.17868 0.08845,2.144166 8.19056,3.777172 z m 28.831883,-5.628435 0,-1.786805 -14.592824,-0.178681 0,3.66295 2.741682,3.66295 z m -25.294228,15.723882 10.170755,0"
       id="path3226-3"
       inkscape:connector-curvature="0"
       sodipodi:nodetypes="ccccccccccccccc" />
    <path
       style="opacity:0;fill:#000000;fill-opacity:1"
       d="m 17.879383,35.13851 -5.628798,-2.597476 -0.06615,-0.588499 c -0.03638,-0.323674 -0.05205,-0.603167 -0.03484,-0.621094 0.01722,-0.01792 3.110751,0.0061 6.874512,0.05328 l 6.843202,0.08587 0,1.518716 0,1.518719 -1.092337,1.616214 c -0.600785,0.888918 -1.131587,1.615212 -1.179563,1.613984 -0.04797,-0.0012 -2.620186,-1.171095 -5.716024,-2.599707 z"
       id="path4351"
       inkscape:connector-curvature="0" />
  </g>
  <g
     inkscape:groupmode="layer"
     id="layer10"
     inkscape:label="colors"
     style="display:inline"
     transform="translate(-2.5977317,-1.3199877)">
    <path
       style="fill:#ff6600;fill-opacity:1"
       d="m 26.577957,16.087497 c -2.31899,1.119578 -4.345314,2.749458 -6.483248,4.17331 -2.733114,1.892147 -5.445618,3.851564 -8.19938,5.691069 -1.526525,-0.189047 -3.0394237,-0.673942 -4.5735413,-0.773623 -0.2843904,0.875362 -0.3347567,1.854855 -0.5305197,2.767499 -0.7709204,4.604 -1.5589425,9.206251 -2.2641242,13.82062 0.6062829,0.385982 1.4128534,0.491992 2.0947397,0.77214 5.3651485,1.773223 10.7394205,3.525347 16.1000025,5.30827 1.019936,3.959127 1.880018,7.983257 2.813454,11.973521 0.711333,0.500702 1.499638,0.932161 2.254525,1.373521 2.956865,-0.0098 5.920069,0.02591 8.872995,-0.0082 0.629312,-0.431586 1.408887,-0.718945 1.940128,-1.262228 0.915469,-3.293136 1.678134,-6.633556 2.535856,-9.944645 0.155241,-0.750517 0.443009,-1.500802 0.516754,-2.251463 -2.959905,-3.439626 -5.92025,-6.878861 -8.881056,-10.317694 -0.159762,-3.109671 -0.152086,-6.225139 -0.212284,-9.337773 2.439083,-3.672235 4.956555,-7.303573 7.330564,-11.0126 -0.338813,-0.420624 -0.967172,-0.537651 -1.415446,-0.831674 -0.678461,-0.323746 -1.487282,-0.07098 -2.220277,-0.150964 -0.911929,0.02902 -1.851875,-0.0585 -2.746275,0.04343 -0.02196,0.936698 -0.131533,1.910487 -0.09942,2.839335 1.079309,0.07112 2.180944,-0.01403 3.267583,0.06244 -1.488752,2.067811 -3.034492,4.095567 -4.552045,6.142843 -1.525573,-1.916196 -2.836075,-4.00662 -4.261832,-6.00712 -0.286909,-0.411402 0.800098,-0.06391 1.079971,-0.161726 0.628699,-0.0143 1.281055,0.08717 1.894711,0.0016 0.0433,-0.956764 -0.0068,-1.959769 -0.134356,-2.901768 -1.36925,-0.03683 -2.755589,-0.02087 -4.127475,-0.0082 z m -2.329765,6.650449 c 0.935434,-0.124338 1.836586,0.809263 1.555864,1.737259 -0.005,0.311475 -0.276399,0.525643 -0.338582,0.789911 0.0034,0.181043 0.311164,0.374471 0,0.453316 -1.033748,0.672819 -2.650887,-0.0068 -2.754335,-1.278515 -0.09265,-0.889431 0.640226,-1.714344 1.537053,-1.701971 z m -4.095228,0.708476 c 0.58511,-0.0195 1.179161,0.475842 1.061427,1.110217 0.07216,0.339322 -0.440167,0.591721 -0.166605,0.887633 -0.658914,0.498564 -1.825551,0.185532 -1.934752,-0.71662 -0.148596,-0.654871 0.403848,-1.265599 1.03993,-1.28123 z m -8.902554,6.881179 c 5.199812,0.0509 10.399556,0.115174 15.59895,0.198155 0.0264,1.423053 0.01208,2.8466 0.01612,4.26986 -0.945428,1.382689 -1.846961,2.871028 -2.837639,4.177568 -3.279327,-1.324273 -6.46734,-2.922704 -9.701467,-4.379436 -1.00253,-0.477983 -2.052054,-0.919699 -3.027598,-1.415956 -0.0888,-0.940457 -0.143619,-1.900261 -0.139733,-2.850191 l 0.08599,0 0.0053,0 z m 21.231233,17.844917 c 1.683951,0 3.367904,0 5.051856,0 -0.02684,0.256919 0.195524,0.416973 0.419196,0.453316 -0.61561,2.721346 -1.281941,5.431438 -1.926692,8.146121 -2.319177,-0.0215 -4.661882,0.10427 -6.9678,-0.01901 -0.327124,-1.024368 -0.524942,-2.173229 -0.801263,-3.243376 -0.376997,-1.658627 -0.807676,-3.350611 -1.146925,-4.989608 0.261566,0.0086 0.224414,-0.390563 0.513247,-0.304021 1.617417,-0.07252 3.239691,-0.03112 4.858381,-0.04343 z"
       id="path4667"
       inkscape:connector-curvature="0" />
    <path
       style="fill:#ff6600;fill-opacity:1"
       d="m 7.1471223,3.945681 c -0.671042,4.4781823 -1.2263331,8.990862 -1.8487643,13.482763 0.301692,1.118497 0.6426504,2.230223 0.9566281,3.346941 0.6400124,0.182401 1.3931063,0.02964 2.0771668,0.07422 0.215567,0.0023 0.7775621,0.06811 0.5320631,-0.30495 C 8.3913976,19.508484 7.8021954,18.503856 7.3861432,17.455589 7.3644953,12.971503 7.4062118,8.4855771 7.3271619,4.0026848 7.3157268,3.9126829 7.2014277,3.8943676 7.1471223,3.945681 Z"
       id="path4669"
       inkscape:connector-curvature="0" />
    <path
       style="fill:#ff6600;fill-opacity:1"
       d="m 56.797731,3.598229 c -0.231324,0.4108633 -0.04973,0.9790629 -0.146871,1.4407233 -0.202776,4.1283897 -0.417177,8.2561787 -0.629717,12.3840637 -0.325284,0.913314 -0.796519,1.802638 -1.026494,2.736184 0.512659,0.240624 1.168512,0.06968 1.730507,0.132247 0.193366,0.0853 0.864064,-0.135131 0.772763,0.164315 -0.335829,1.027941 -0.691685,2.050235 -1.03877,3.074808 -0.980629,0.11645 -2.009574,0.08516 -2.962375,0.264494 -0.0584,0.261471 -0.395939,0.653808 -0.184286,0.913586 1.201632,-0.172223 2.401568,-0.45762 3.590042,-0.71662 0.724216,-2.166796 1.302334,-4.410119 1.967,-6.607017 -0.614545,-4.57206 -1.214774,-9.1509701 -1.902509,-13.7134933 -0.0218,-0.083277 -0.102865,-0.092163 -0.16929,-0.073291 z"
       id="path4671"
       inkscape:connector-curvature="0" />
    <path
       style="fill:#ff6600;fill-opacity:1"
       d="m 6.3441792,20.710158 c -0.1617891,0.04963 -0.060184,0.234096 -0.03749,0.343812 0.2893588,1.029133 0.5777884,2.060232 0.8933497,3.081169 0.089723,0.127868 0.2743468,0.0964 0.4073009,0.147051 1.0681814,0.226933 2.1383121,0.448793 3.2109562,0.651003 0.135299,0.02229 0.183057,-0.149507 0.107486,-0.241588 -0.108182,-0.209853 -0.190847,-0.440052 -0.324091,-0.632503 -0.15695,-0.07229 -0.351555,-0.04722 -0.52321,-0.07933 C 9.2599618,23.899062 8.4412834,23.819862 7.6225944,23.740867 7.2863389,22.763854 6.9499889,21.786874 6.6135667,20.809919 6.5632147,20.717389 6.437069,20.710449 6.3441792,20.710159 Z"
       id="path4673"
       inkscape:connector-curvature="0" />
    <path
       style="fill:#ffffff;fill-opacity:1"
       d="M 8.4240512,3.8025482 C 8.1978797,8.2512494 8.2200017,12.755472 8.1998386,17.223125 c 1.2707715,2.522579 2.4504444,5.121703 3.7774124,7.597061 4.398268,-2.988082 8.704957,-6.182195 13.167743,-9.075014 0.0915,-0.396136 -0.548655,-0.682793 -0.715509,-1.028416 C 22.141923,12.138227 19.839735,9.5668651 17.517964,7.0233337 14.484784,5.9680081 11.463121,4.7816552 8.4240512,3.8025482 Z"
       id="path4677"
       inkscape:connector-curvature="0" />
    <path
       style="fill:#ffffff;fill-opacity:1"
       d="m 55.649318,4.0482339 c -3.057779,1.0374758 -6.124806,2.0836325 -9.128117,3.255335 -2.4354,2.7057671 -4.983209,5.3247821 -7.357215,8.0769131 0.03142,0.521412 0.83338,0.524679 1.128664,0.875255 3.993041,2.675004 7.862773,5.532168 11.811067,8.272698 0.482559,-0.340981 0.509856,-1.186566 0.823405,-1.713871 0.741629,-1.964363 1.6025,-3.90205 2.272326,-5.883033 0.203888,-4.259769 0.450833,-8.518009 0.609479,-12.7796485 -0.05992,-0.023346 -0.08039,-0.1382567 -0.159609,-0.1036486 z"
       id="path4679"
       inkscape:connector-curvature="0" />
    <path
       style="fill:#ffffff;fill-opacity:1"
       d="m 58.146059,43.204384 c -5.201239,1.552173 -10.347233,3.295508 -15.520078,4.944424 -1.005974,3.532114 -1.828431,7.167191 -2.758955,10.737231 -0.149613,0.511953 0.448133,0.285717 0.652341,0.06106 2.815724,-1.69703 5.670881,-3.353339 8.428698,-5.130633 3.109801,-3.482202 6.354442,-6.882832 9.334802,-10.458536 0.04405,-0.09018 -0.04858,-0.191808 -0.136808,-0.153553 z"
       id="path4681"
       inkscape:connector-curvature="0" />
    <path
       style="fill:#ffffff;fill-opacity:1"
       d="m 5.9691125,43.354099 c 0.059215,0.517039 0.7506634,0.878419 1.0398894,1.335827 2.8724558,3.121692 5.6958711,6.30976 8.6219921,9.368525 2.885386,1.714392 5.726742,3.528882 8.651352,5.161567 0.398099,-0.266347 -0.132486,-0.904446 -0.09143,-1.288537 -0.715399,-3.087529 -1.385784,-6.186898 -2.124097,-9.268268 -2.851511,-1.096225 -5.826928,-1.957389 -8.727194,-2.958384 -2.423856,-0.793571 -4.8416996,-1.610215 -7.275508,-2.369924 l -0.095005,0.0192 z"
       id="path4683"
       inkscape:connector-curvature="0" />
    <path
       style="fill:#666666;fill-opacity:1"
       d="m 11.931648,31.208013 c 0.104905,0.621936 -0.07414,1.608086 0.794137,1.722059 3.617445,1.722386 7.287376,3.349222 10.925726,5.034297 0.576115,-0.417859 0.860409,-1.255736 1.325166,-1.825956 0.448924,-0.806158 1.301466,-1.494146 1.065168,-2.51193 -0.06993,-0.776384 0.141628,-1.670544 -0.106405,-2.372403 -4.631792,0.02114 -9.263142,-0.05987 -13.893585,-0.16507 l -0.08308,0.08971 -0.02714,0.02929 z"
       id="path4685"
       inkscape:connector-curvature="0" />
    <path
       style="fill:#666666;fill-opacity:1"
       d="m 40.608067,17.66843 c -2.38299,3.582123 -4.811109,7.142199 -7.167203,10.737232 0.04251,2.890886 0.0049,5.797614 0.231813,8.675775 2.878465,3.360867 5.806733,6.711663 8.634087,10.096145 1.011186,-0.0018 1.968813,-0.603457 2.957652,-0.824639 4.747267,-1.541707 9.505552,-3.054945 14.242119,-4.626512 0.139706,-0.708532 -0.213928,-1.516423 -0.251873,-2.257199 -0.788334,-4.808186 -1.504876,-9.643221 -2.412077,-14.422554 -1.339956,0.01583 -2.686836,0.481237 -4.021768,0.686615 -0.749954,0.309138 -1.243719,-0.612634 -1.871331,-0.891308 -3.402243,-2.396544 -6.776559,-4.835008 -10.19701,-7.204266 l -0.118998,0.02531 -0.02541,0.0054 z m 5.726924,12.894659 c 2.887317,0.04769 5.819152,0.02108 8.67969,0.126681 0.363904,2.633861 0.701871,5.305094 0.915852,7.938719 -3.502002,0.22505 -7.046816,0.06786 -10.564597,0.119003 -1.574556,0 -3.149111,0 -4.723666,0 -0.975727,-1.303667 -1.951112,-2.607595 -2.926166,-3.911776 0,-1.449801 0,-2.899603 0,-4.349403 2.872963,0.02559 5.745925,0.05118 8.618887,0.07678 z"
       id="path4687"
       inkscape:connector-curvature="0" />
    <path
       style="fill:#666666;fill-opacity:1"
       d="m 7.9718257,21.837409 c 0.019429,0.702954 0.64639,1.252541 1.3566766,1.140135 0.9101617,0.26703 0.5775425,-0.473067 0.2432137,-0.932838 -0.3604789,-0.446591 -1.1297373,-0.20668 -1.5998903,-0.207297 z"
       id="path4689"
       inkscape:connector-curvature="0" />
    <path
       style="fill:#666666;fill-opacity:1"
       d="m 54.44845,21.37291 c -0.06595,0.417981 -0.52286,0.90463 -0.33822,1.312882 0.493837,0.07841 1.074735,0.01552 1.539088,-0.138198 0.233572,-0.296778 0.582205,-0.859387 0.323018,-1.186201 -0.491014,-0.06604 -1.064405,-0.122621 -1.523886,0.01152 z"
       id="path4691"
       inkscape:connector-curvature="0" />
    <path
       style="fill:#666666;fill-opacity:1"
       d="m 8.2677002,21.700429 c -0.3681999,-0.07601 -0.4971807,0.333615 -0.2848387,0.586325 0.3124241,0.711427 1.2583852,1.016171 1.9428148,0.730192 C 10.149327,22.643336 9.7707115,22.173383 9.5360385,21.890442 9.1959564,21.594261 8.6768632,21.732822 8.2677002,21.700429 Z"
       id="path4693"
       inkscape:connector-curvature="0" />
    <path
       style="fill:#666666;fill-opacity:1"
       d="m 54.895257,21.195537 c -0.663856,-0.02915 -0.814168,0.772743 -0.940506,1.273087 0.03062,0.502315 0.734342,0.382036 1.062727,0.310198 0.528138,-0.02638 1.093032,-0.370168 1.087,-0.961671 0.241656,-0.536641 -0.27558,-0.619421 -0.677164,-0.610755 -0.176753,-0.01362 -0.354972,-0.02364 -0.532057,-0.01086 z"
       id="path4695"
       inkscape:connector-curvature="0" />
    <path
       style="fill:#666666;fill-opacity:1"
       d="m 40.642573,17.631441 c -1.440788,1.981884 -2.719541,4.169409 -4.173155,6.156415 -0.140767,0.239237 -0.202956,0.477236 -0.415193,0.676182 -0.502425,0.749446 -1.01906,1.52873 -1.532997,2.250014 -0.307593,0.651028 -0.85747,1.205996 -1.116414,1.862114 0.05817,2.817608 0.04885,5.644796 0.275334,8.452869 0.515634,0.802087 1.256331,1.457899 1.840703,2.225863 2.301232,2.605844 4.512079,5.338513 6.830755,7.934393 1.7166,-0.298144 3.334388,-1.014112 5.007009,-1.494222 4.012014,-1.26932 8.013263,-2.629054 12.010759,-3.907571 0.356092,-0.0676 0.103887,-0.598855 0.134358,-0.841486 -0.870821,-5.28829 -1.648539,-10.595573 -2.641476,-15.863354 -1.211912,-0.051 -2.447684,0.378131 -3.662595,0.553751 -0.460236,0.07096 -0.990853,0.262091 -1.357015,-0.143867 C 50.27348,24.301929 48.638225,23.222947 47.03239,22.048043 45.863017,21.21768 44.644377,20.404229 43.525894,19.539712 43.027201,19.269298 42.579247,18.88922 42.1017,18.584218 41.661893,18.235059 41.15332,17.886755 40.642573,17.631441 Z m 1.171601,12.89644 c 4.391194,0.06866 8.786541,0.0705 13.175133,0.18187 0.381525,2.629716 0.696852,5.29108 0.894824,7.931677 -5.076978,0.101737 -10.155726,0.07608 -15.233496,0.111294 -0.947745,-1.30644 -1.944911,-2.570705 -2.867197,-3.881691 -0.150047,-1.455664 -0.03142,-2.931568 -0.06987,-4.394725 1.366866,0.01718 2.733734,0.03439 4.100602,0.05157 z"
       id="path4703"
       inkscape:connector-curvature="0" />
    <path
       style="fill:#000000;fill-opacity:1"
       d="m 7.2318681,3.3451982 c -0.038588,0.053856 -0.025782,0.1281888 -0.041712,0.1909519 -0.01529,0.1263437 -0.038167,0.2528239 -0.048093,0.379224 0.00431,0.058696 0.069746,0.046288 0.1092806,0.053635 0.041092,0.018841 0.022583,0.076465 0.030402,0.1122859 0.010014,0.4018792 0.00948,0.804112 0.022326,1.2058752 0.00512,0.061591 0.1000615,0.054661 0.097381,-0.00647 0.00596,-0.6212343 0.00761,-1.2425046 0.011401,-1.8637562 -0.012833,-0.063041 -0.091272,-0.060377 -0.140608,-0.079896 -0.014198,-0.00463 -0.026904,0.0054 -0.040377,0.00815 z"
       id="path4705"
       inkscape:connector-curvature="0" />
    <path
       style="fill:#000000;fill-opacity:1"
       d="m 30.882395,49.034209 c -0.887739,0.02471 -1.786507,-0.02274 -2.668348,0.05972 -0.172121,0.427806 0.171511,0.95382 0.20669,1.418215 0.434361,1.775822 0.792624,3.584541 1.284683,5.338099 0.47036,0.27725 1.09087,0.09498 1.614979,0.16124 1.312144,-0.01224 2.665106,0.03693 3.952811,-0.04723 0.287419,-0.35784 0.257006,-0.960746 0.420976,-1.412923 0.412075,-1.762513 0.84982,-3.519912 1.242375,-5.286385 -0.155608,-0.357124 -0.716512,-0.122308 -1.042597,-0.20627 -1.67028,-0.03148 -3.341065,-0.02837 -5.011569,-0.02446 z"
       id="path4715"
       inkscape:connector-curvature="0" />
    <path
       style="fill:#000000;fill-opacity:1"
       d="m 53.070255,31.49874 c -0.163168,0.518792 0.08592,1.210216 -0.126861,1.658726 -3.252183,1.473168 -6.509342,2.935129 -9.759192,4.413541 -0.339956,0.531649 0.571584,0.352321 0.873323,0.375801 3.59772,-0.02708 7.212245,-0.0044 10.79969,-0.09892 0.392017,-0.183406 0.04897,-0.748794 0.10077,-1.087983 -0.218849,-1.7068 -0.328778,-3.442646 -0.651638,-5.128151 -0.262016,-0.342059 -0.814084,-0.166432 -1.170098,-0.161404 l -0.066,0.0284 z"
       id="path4721"
       inkscape:connector-curvature="0" />
  </g>
  <g
     inkscape:groupmode="layer"
     id="layer9"
     inkscape:label="coloreyes"
     style="display:inline"
     transform="translate(-2.5977317,-1.3199877)">
    <path
       style="fill:#000000;fill-opacity:1"
       d="m 11.355517,30.772419 c -0.0125,0.527574 -0.04724,1.116693 0.09627,1.629689 4.124823,2.008994 8.223078,4.089401 12.380887,6.013072 0.331275,-0.147419 0.445936,-0.651895 0.693228,-0.933844 0.610588,-0.985901 1.255591,-1.960579 1.835579,-2.964539 -0.02595,-1.185961 0.05155,-2.396915 -0.03851,-3.567388 -2.804514,-0.08772 -5.62659,-0.06858 -8.437786,-0.121032 -2.149536,-0.02627 -4.29895,-0.0624 -6.448375,-0.09734 l -0.06187,0.03148 -0.01943,0.0099 z"
       id="path4501"
       inkscape:connector-curvature="0" />
    <path
       style="fill:#ffffff;fill-opacity:1"
       d="m 38.532898,31.394814 c -0.03821,1.006917 -0.03356,2.039647 -0.002,3.047312 0.825602,1.071308 1.584032,2.205723 2.466722,3.224435 0.985639,-0.34799 1.937154,-0.861077 2.909486,-1.272723 2.774639,-1.253153 5.548297,-2.508523 8.322264,-3.763193 0.103328,-0.324303 0.07239,-0.742076 0.02192,-1.08085 -3.094524,-0.09417 -6.205809,-0.09318 -9.306912,-0.142374 -1.461903,0.0015 -2.939556,-0.07012 -4.391668,-0.02184 l -0.01981,0.0093 z"
       id="path4503"
       inkscape:connector-curvature="0" />
    <path
       style="fill:#ffffff;fill-opacity:1"
       d="m 31.652778,16.11696 c -0.01754,1.263212 0.01639,2.544589 0.08169,3.812159 -0.704791,0.01767 -1.431893,-0.123921 -2.126003,-0.004 -0.185849,0.203669 0.206543,0.423761 0.259172,0.614999 0.732922,1.02114 1.401116,2.100805 2.193601,3.070356 0.299138,-0.05284 0.410131,-0.466834 0.630005,-0.659379 0.75404,-1.008449 1.552958,-2.003381 2.251413,-3.040887 -0.235746,-0.218183 -0.718209,-0.03196 -1.04632,-0.09378 -0.457612,0 -0.915225,0 -1.372836,0 0.03514,-1.228616 0.126884,-2.471822 0.102043,-3.692066 -0.275103,-0.08035 -0.681341,-0.06019 -0.972768,-0.0074 z"
       id="path4505"
       inkscape:connector-curvature="0" />
    <path
       style="fill:#ff0000;fill-opacity:1"
       d="m 39.071769,31.310691 c -0.244397,0.0258 -0.723144,-0.08049 -0.621334,0.320544 0.0144,0.950849 -0.02831,1.910796 0.0209,2.856096 0.82817,1.082105 1.605594,2.225679 2.505774,3.238143 0.804331,-0.232805 1.571895,-0.681013 2.360819,-1.001942 2.983854,-1.340649 5.963492,-2.690853 8.943386,-4.040455 0.148547,-0.322306 0.0184,-0.747169 0.0627,-1.107505 -0.224271,-0.246273 -0.697247,-0.05044 -1.016432,-0.122797 -4.084958,-0.06473 -8.170299,-0.136512 -12.255818,-0.142084 z"
       id="path4583"
       inkscape:connector-curvature="0" />
    <path
       style="fill:#ff0000;fill-opacity:1"
       d="m 31.94658,16.031698 c -0.697728,-0.02298 -0.335096,0.737143 -0.409031,1.120957 0.01633,0.912092 0.03153,1.824199 0.04706,2.736303 -0.725852,0.03627 -1.520734,-0.221501 -2.214437,0.0082 -0.288919,0.39902 0.342423,0.807312 0.509331,1.14863 0.736059,0.872771 1.363688,1.849699 2.200922,2.632625 1.165233,-1.087879 2.134172,-2.371719 3.09656,-3.612957 0.142018,-0.38346 -0.564391,-0.297974 -0.799943,-0.311639 -0.582027,-0.0097 -1.164052,-0.01942 -1.746051,-0.03039 0.04391,-1.174452 0.08748,-2.348912 0.130798,-3.523381 -0.156744,-0.199111 -0.562773,-0.166375 -0.815203,-0.168297 z"
       id="path4744"
       inkscape:connector-curvature="0" />
  </g>
</svg>
